<svg id="圖層_1" data-name="圖層 1" xmlns="http://www.w3.org/2000/svg" viewBox="0 0 327.06 100.1"><defs><style>.cls-1{fill:#e2e2e2;}.cls-2{fill:#9e9e9f;}.cls-3{fill:#c1da75;}.cls-4{fill:#a5a5a5;}</style></defs><title>footerlogo</title><polygon class="cls-1" points="32.51 90.12 37.42 80 42.15 89.6 42.86 89.15 37.5 78.2 27.67 98.44 28.46 98.44 32.17 90.91 40.08 90.91 41.28 90.12 32.51 90.12"/><polygon class="cls-1" points="52.79 98.63 53.65 98.63 53.65 90.23 52.79 90.8 52.79 98.63"/><polygon class="cls-1" points="53.61 78.84 53.61 82.36 52.79 82.93 52.79 78.84 53.61 78.84"/><polygon class="cls-1" points="55.94 88.81 55.22 89.26 64.18 98.63 65.34 98.63 55.94 88.81"/><polygon class="cls-1" points="68.6 98.44 68.6 78.69 75.69 78.69 75.69 79.44 69.46 79.44 69.46 90.2 74.64 90.2 74.64 90.95 69.46 90.95 69.46 97.66 75.69 97.66 75.69 98.44 68.6 98.44"/><path class="cls-1" d="M81.07,91.53h.45a6.24,6.24,0,0,0,4-1.84,6,6,0,0,0,.37-8.48c-.12-.13-.24-.25-.37-.37A6.22,6.22,0,0,0,81,78.93H79.87V98.68h.87V92.39l6,6.29H87.9C87.33,98.12,81.07,91.53,81.07,91.53Zm-.33-11.85h.33a5.55,5.55,0,0,1,4,9.26l-.18.18a5.12,5.12,0,0,1-3.75,1.62H80.7Z" transform="translate(-0.1 -0.24)"/><polygon class="cls-1" points="25.24 78.69 25.24 98.44 24.38 98.44 24.38 79.7 15.05 98.82 5.75 79.74 5.75 98.44 4.96 98.44 4.96 78.69 6.24 78.69 15.12 96.9 24.04 78.69 25.24 78.69"/><polygon class="cls-2" points="23.7 81.09 23.96 80.53 23.96 80.53 23.7 81.09"/><path class="cls-3" d="M109.07,13c-1,4.61-2.88,13.87-12.63,20.87s-18.59,6.75-24.07,6.38c-.41-6.12-1.61-18,8.74-26.47S106.3,9.78,109.07,13Z" transform="translate(-0.1 -0.24)"/><path class="cls-3" d="M61.25,38.12C60.23,42.73,58.32,52,48.58,59S30,65.74,24.51,65.36c-.41-6.1-1.6-18,8.74-26.45S58.47,34.85,61.25,38.12Z" transform="translate(-0.1 -0.24)"/><path class="cls-4" d="M76.92,97.9H37.26L56.48,85.82c.38-.22.76-.48,1.13-.71,6.29-4,9.67-6.63,11.8-8.8A26.29,26.29,0,0,0,73,71.7c0-.07.11-.15.15-.22A24.21,24.21,0,0,0,67.77,39a34.07,34.07,0,1,0-.51,2.75,21.78,21.78,0,0,1,4.1,28.08l-.45.67c-1.91,2.89-4,5.66-12.7,11.39l-2.81,1.8a4.67,4.67,0,0,0-.6.38L32.68,97.9l-.07.07-3.79,2.37h48.1a1.19,1.19,0,0,0,1.2-1.18v0A1.22,1.22,0,0,0,76.92,97.9ZM34.19,65.74a31.49,31.49,0,1,1,31.48-31.5h0c0,1.06-.06,2.11-.16,3.14A24.27,24.27,0,0,0,28.6,58.13v.6a1.18,1.18,0,0,0,1.16,1.2h0a1.22,1.22,0,0,0,1.2-1.2v-.6A21.83,21.83,0,0,1,65.12,40.05,31.48,31.48,0,0,1,34.19,65.74Z" transform="translate(-0.1 -0.24)"/><path class="cls-3" d="M325.62,80c-4.07,0-12.28.09-20-6.88s-9.14-14.5-9.81-19.21c5.08-1.46,14.93-4.67,24,2.54S327.86,77,325.62,80Z" transform="translate(-0.1 -0.24)"/><path class="cls-4" d="M121.5,44.85a20.35,20.35,0,0,1-6,5.87l-.31-.34a22.89,22.89,0,0,0,6.11-9.29l2.59,1c-.16.31-.36.4-1,.28-.29.55-.59,1.09-1,1.66h11.9l1.25-1.74s1.39,1.17,2.33,2.13c-.07.32-.33.43-.71.43ZM130.27,60s1.51,1.26,2.41,2.17a.62.62,0,0,1-.69.45h-7.23v4.11a1.78,1.78,0,0,1-1.41.54h-.29V62.6H116.3l-.21-.85h7V59.13H118l-.21-.83h5.33V55.82h-6l-.21-.85h4.77l-.2-.14a6.72,6.72,0,0,0-1.54-3.25l.28-.2c3.08,1,3.21,3,2.46,3.59h2.23a28.43,28.43,0,0,0,1.34-3.79l2.64.88a.93.93,0,0,1-1,.52A16.51,16.51,0,0,1,125.55,55H128l1.28-1.71s1.41,1.2,2.31,2.11a.62.62,0,0,1-.69.45h-6.15V58.3h2.59l1.23-1.71s1.43,1.2,2.33,2.11c0,.28-.33.43-.69.43h-5.46v2.62H129Zm7.87,5.19c.51.8.64,1.28.38,1.62-.48.71-1.59.23-2.46-.54-3.18-2.39-3.84-8.8-4-15.27H117.53l-.24-.83h14.59l1-1.19,2,1.88a1.62,1.62,0,0,1-1,.45c-.08,4.85.51,11.26,3,13,.3.23.41.17.53-.17a24.75,24.75,0,0,0,.75-2.68h.31Zm-6-18.07,1.23-1.68s1.36,1.2,2.18,2c-.05.32-.31.46-.67.46h-14.1l-.2-.8Z" transform="translate(-0.1 -0.24)"/><path class="cls-4" d="M164.27,45.11A18.07,18.07,0,0,1,158,51.86l-.31-.34A23.83,23.83,0,0,0,163.91,41l2.59,1.19a.85.85,0,0,1-1,.46c-.23.57-.49,1.08-.75,1.59h11.92l1.24-1.71a25.93,25.93,0,0,1,2.33,2.11.59.59,0,0,1-.64.46Zm8.56,11.48s1.24,1.06,2,1.88a.61.61,0,0,1-.67.46h-6.61v7.55c0,.23-.72.66-1.28.66H166V58.93h-7.3l-.18-.83H166v-6l2.46.31c0,.37-.25.63-.84.72v5h4.15ZM159,65.85a19.35,19.35,0,0,0,3.82-5.52l2.1,1.36c-.1.26-.46.43-1,.32a14.85,14.85,0,0,1-4.61,4.21Zm21.61-.68c.54.74.67,1.23.41,1.59-.48.69-1.59.26-2.46-.51-3.1-2.28-3.72-8.46-3.84-14.81H160.53l-.23-.86h14.18l1-1.17,2,1.86a1.52,1.52,0,0,1-1,.45c-.08,4.7.48,10.91,2.79,12.59.31.21.44.17.54-.17a24.66,24.66,0,0,0,.74-2.64h.31ZM160.91,52.8c4.85,2.08,3.41,5.67,1.85,4.33a11.31,11.31,0,0,0-2.1-4.13ZM175,47.39l1.18-1.65s1.39,1.17,2.21,2a.59.59,0,0,1-.67.45H163.53l-.21-.85Zm-6.23,13.19c6.26,1.88,5.36,6.36,3.49,5.13a11.81,11.81,0,0,0-3.72-4.87Zm4.57-6.67a.87.87,0,0,1-1,.38,24.57,24.57,0,0,1-3.23,3.3l-.36-.28a47.16,47.16,0,0,0,2.36-4.65Z" transform="translate(-0.1 -0.24)"/><path class="cls-4" d="M221.35,59.84c-.18.26-.39.37-.92.2A21.87,21.87,0,0,1,216,62a21.52,21.52,0,0,0,7.64,3.19v.31a1.89,1.89,0,0,0-1.46,1.62c-4.64-1.54-8.36-4.3-10.31-8.8a15.26,15.26,0,0,1-3.2,2.39v4.1l4.84-1.42.1.4c-1.28.68-3.61,2-6.15,3.16a1.4,1.4,0,0,1-.38.46l-1.16-1.83c1-.65,1.1-.88,1.1-1.28v-2.7a31.35,31.35,0,0,1-6.46,2.13l-.18-.45a24.54,24.54,0,0,0,9.21-5.22h-8.82l-.23-.85h11A4.09,4.09,0,0,0,210,55.17l.24-.26c2.64.06,3,1.68,2.41,2.34h7.23L221,55.68a28,28,0,0,1,2.15,2c0,.31-.3.45-.66.45H212.3a11.74,11.74,0,0,0,3.07,3.51,23.69,23.69,0,0,0,3.88-3.19ZM206.86,44.48h-3.18a8.16,8.16,0,0,1-1.66,2l-.41-.26a15.43,15.43,0,0,0,1.61-5.13l2.36.8a.75.75,0,0,1-.87.57,11.87,11.87,0,0,1-.54,1.14h2.69V41.06l2.49.32c-.08.37-.28.65-.92.74v1.51h2.41l1.1-1.45a25,25,0,0,1,2,1.85.59.59,0,0,1-.66.45h-4.82v2.4h3.35l1.06-1.46s1.25,1.06,2,1.85a.58.58,0,0,1-.64.46h-5.77v2h3.18l.79-1,2.08,1.68a2.11,2.11,0,0,1-1.13.57v1.74c0,1.25-.23,1.91-1.95,2.11a1.4,1.4,0,0,0-.33-.94,2.61,2.61,0,0,0-1.26-.46V53s1.26.14,1.64.14.41-.17.41-.49v-2h-3.43v4.56c0,.23-.7.62-1.26.62h-.31V50.61H204v3.85c0,.17-.69.54-1.28.54h-.21V48.93l1.62.82h2.79v-2h-6.15l-.21-.85h6.36Zm10.51,7.18c0,.2-.66.57-1.23.57h-.3V42.06l2.46.29c-.05.4-.28.65-.93.76Zm-.59,1.83s2.26.17,2.77.17.52-.15.52-.54V41.23l2.51.32c-.08.4-.33.63-.92.74V53.2c0,1.43-.26,2.25-2.47,2.51a1.72,1.72,0,0,0-.48-1.2,4,4,0,0,0-1.93-.6Z" transform="translate(-0.1 -0.24)"/><path class="cls-4" d="M251.15,55.08c-.16.23-.44.29-1,.32a15.61,15.61,0,0,1-3.23,6.21,1.61,1.61,0,0,1,.38.31c2.26,2.51,5.15,2.91,10.2,2.91,3,0,5.57,0,8.72-.17V65a1.57,1.57,0,0,0-1.28,1.48H257c-5.2,0-7.69-.8-10-3.79-.31-.4-.57-.34-.77,0-.49.85-1.46,2.51-2.08,3.65a.52.52,0,0,1-.13.6L242.59,65c.95-.82,2.41-2.45,3.28-3.16a18.93,18.93,0,0,0,2.64-6.58h-2.85l-.71.65-1.44-1.48a5.87,5.87,0,0,1,1-.42c.84-1.37,2.05-3.42,2.79-5H243l-.23-.83h4.87l1-1.05,2,1.91a2.41,2.41,0,0,1-1.67.42c-.74,1.34-2,3.43-2.89,4.91h2.43l1-1.06Zm-7-13.76c5.48,1.65,4.28,5.76,2.51,4.5a10.27,10.27,0,0,0-2.77-4.24Zm9.51,5.1a14.73,14.73,0,0,1-2.57,3.82l-.38-.26a27.56,27.56,0,0,0,2.67-8.26l2.53.82a.83.83,0,0,1-.92.57c-.28.86-.59,1.66-.92,2.45h3.05v-4.5l2.56.29c-.05.4-.3.68-.92.8v3.41h2.18l1.18-1.62s1.33,1.14,2.18,2c-.05.32-.31.46-.67.46h-4.87v4.39h3.59l1.18-1.71s1.36,1.22,2.21,2.11c-.08.31-.31.45-.7.45H250.53l-.2-.85h6.79V46.42Zm8.13,16.64V61.29h-8v1.37c0,.17-.72.6-1.41.6h-.23V53.49l1.76.88h7.65l.89-1.08L264.4,55a1.7,1.7,0,0,1-1,.51v6.9c0,.19-.82.65-1.36.65Zm0-2.59V55.22h-8v5.25Z" transform="translate(-0.1 -0.24)"/><path class="cls-4" d="M288.66,56.56c-.23,3.68-1,7.67-3.23,10.69L285,67c2-4.37,2.13-9.72,2.13-14.65V43.46l1.51.57a41.11,41.11,0,0,0,5.92-3l2,1.82c-.23.23-.66.25-1.28,0a51.12,51.12,0,0,1-6.54,1.82v3.56h4.85l.92-1.11,2,1.74a1.87,1.87,0,0,1-1.1.57v8.12a2.21,2.21,0,0,1-1.36.54h-.23V56.56Zm.1-7.43v3.22c0,1,0,2.22-.05,3.39h5.16V49.13Zm18-.37c.75.65,1.47,1.33,2.15,2.05a.6.6,0,0,1-.64.46h-2.9V66.45a1.63,1.63,0,0,1-1.41.6h-.25V51.27h-3.93c0,5.29-.79,11.65-6.2,15.95l-.36-.34c4.18-4.59,4.92-10.26,4.92-16V43l1.87.74A40.63,40.63,0,0,0,306.33,41l2.15,2.16c-.26.26-.74.26-1.36,0a54,54,0,0,1-7.36,1.31V50.4h5.8Z" transform="translate(-0.1 -0.24)"/></svg>