<svg id="圖層_1" data-name="圖層 1" xmlns="http://www.w3.org/2000/svg" viewBox="0 0 163.44 50"><defs><style>.cls-1{fill:#9e9e9f;}.cls-2{fill:#c1da75;}.cls-3{fill:#232323;}</style></defs><title>Wireframe for phone</title><polygon class="cls-1" points="16.15 45.02 18.61 39.95 20.97 44.75 21.33 44.53 18.65 39.05 13.74 49.17 14.13 49.17 15.98 45.41 19.94 45.41 20.54 45.02 16.15 45.02"/><polygon class="cls-1" points="26.29 49.27 26.73 49.27 26.73 45.07 26.29 45.35 26.29 49.27"/><polygon class="cls-1" points="26.71 39.37 26.71 41.13 26.29 41.41 26.29 39.37 26.71 39.37"/><polygon class="cls-1" points="27.87 44.36 27.51 44.58 31.99 49.27 32.57 49.27 27.87 44.36"/><polygon class="cls-1" points="34.2 49.17 34.2 39.3 37.75 39.3 37.75 39.67 34.63 39.67 34.63 45.05 37.22 45.05 37.22 45.43 34.63 45.43 34.63 48.78 37.75 48.78 37.75 49.17 34.2 49.17"/><path class="cls-1" d="M40.39,45.6l.22,0a3.15,3.15,0,0,0,2-.92,3,3,0,0,0,1-2.22,3,3,0,0,0-1-2.21,3.16,3.16,0,0,0-2.23-.93h-.58v9.87h.43V46l3,3.14h.58Zm-.17-5.93h.17a2.71,2.71,0,0,1,1.93.83,2.68,2.68,0,0,1,0,3.89,2.54,2.54,0,0,1-1.87.81h-.24Z"/><polygon class="cls-1" points="12.52 39.3 12.52 49.17 12.09 49.17 12.09 39.8 7.42 49.36 2.77 39.82 2.77 49.17 2.38 49.17 2.38 39.3 3.02 39.3 7.46 48.41 11.92 39.3 12.52 39.3"/><polygon class="cls-1" points="11.75 40.5 11.88 40.22 11.88 40.22 11.75 40.5"/><path class="cls-2" d="M54.39,6.34a15.85,15.85,0,0,1-6.32,10.43A17.11,17.11,0,0,1,36,20c-.21-3.06-.81-9,4.37-13.23S53,4.72,54.39,6.34Z"/><path class="cls-2" d="M30.47,18.89a15.91,15.91,0,0,1-6.33,10.44,17.15,17.15,0,0,1-12,3.18c-.21-3-.81-9,4.37-13.22S29.09,17.26,30.47,18.89Z"/><path class="cls-3" d="M16.94,33.92a17,17,0,1,1,17-17A17,17,0,0,1,16.94,33.92Zm0-32.7A15.74,15.74,0,1,0,32.68,17,15.75,15.75,0,0,0,16.94,1.22Z"/><path class="cls-3" d="M29,40.74l-1.46.92,1.41-.9S29,40.74,29,40.74Z"/><path class="cls-3" d="M38.91,49.4a.6.6,0,0,1-.6.6H14.26l1.89-1.18,0,0,11.06-6.93a1.66,1.66,0,0,1,.3-.19L29,40.74s0,0-.05,0c4.32-2.87,5.39-4.25,6.35-5.7l.22-.33A10.92,10.92,0,1,0,15.37,28.9v.3a.61.61,0,0,1-.62.6.6.6,0,0,1-.6-.6v-.3a12.15,12.15,0,1,1,22.28,6.67s-.06.08-.07.11A13.67,13.67,0,0,1,34.56,38a34.71,34.71,0,0,1-5.91,4.4l-.56.35-9.61,6H38.31A.61.61,0,0,1,38.91,49.4Z"/><path class="cls-2" d="M162.66,39.82a13.75,13.75,0,0,1-10-3.44,14.78,14.78,0,0,1-4.9-9.6c2.54-.73,7.47-2.34,12,1.27S163.78,38.35,162.66,39.82Z"/><path class="cls-3" d="M60.6,22.26a10.11,10.11,0,0,1-3,2.93L57.47,25a11.37,11.37,0,0,0,3.05-4.64l1.3.5c-.08.15-.18.2-.48.14-.14.27-.29.54-.47.83h5.95l.63-.87s.69.58,1.16,1.06c0,.16-.16.22-.36.22ZM65,29.82s.76.63,1.21,1.09a.32.32,0,0,1-.35.22H62.23v2.06a.89.89,0,0,1-.71.27h-.14V31.13H58l-.1-.42h3.48V29.4H58.82l-.1-.42h2.66V27.74h-3l-.1-.42h2.38l-.1-.07a3.29,3.29,0,0,0-.77-1.63l.14-.1c1.54.5,1.6,1.5,1.23,1.8h1.12a14.23,14.23,0,0,0,.66-1.9l1.32.44a.45.45,0,0,1-.48.26,9,9,0,0,1-1.14,1.2h1.23l.64-.86s.7.6,1.15,1.06a.31.31,0,0,1-.34.22H62.23V29h1.29l.62-.85s.72.6,1.17,1.05a.32.32,0,0,1-.35.22H62.23v1.31h2.1Zm3.94,2.6c.26.4.32.64.19.81-.24.35-.79.11-1.23-.27-1.59-1.2-1.92-4.4-2-7.64H58.61l-.11-.41h7.29l.49-.6,1,.94a.78.78,0,0,1-.51.23c0,2.42.26,5.63,1.47,6.5.16.11.21.08.27-.09a12.17,12.17,0,0,0,.37-1.34l.16,0Zm-3-9,.62-.84s.68.6,1.09,1c0,.16-.15.23-.33.23h-7l-.1-.4Z"/><path class="cls-3" d="M82,22.39a9.14,9.14,0,0,1-3.12,3.37l-.15-.17a12,12,0,0,0,3.09-5.25l1.29.59a.42.42,0,0,1-.51.23c-.12.29-.24.54-.37.8h6l.61-.86A12.29,12.29,0,0,1,90,22.16a.29.29,0,0,1-.32.23Zm4.28,5.74s.61.53,1,.94a.31.31,0,0,1-.33.23H83.64v3.77c0,.12-.36.33-.64.33h-.17V29.3H79.18l-.09-.42h3.74v-3l1.23.16c0,.18-.13.31-.42.36v2.47h2.08Zm-6.93,4.63A9.68,9.68,0,0,0,81.26,30l1,.68c0,.13-.23.21-.5.15a7.47,7.47,0,0,1-2.31,2.11Zm10.81-.34c.27.37.34.61.21.79-.25.35-.8.13-1.23-.25-1.55-1.14-1.86-4.23-1.93-7.41H80.11L80,25.12h7.09l.5-.58,1,.92a.78.78,0,0,1-.51.23c0,2.35.24,5.46,1.4,6.3.15.1.21.08.26-.09.13-.38.27-.85.38-1.32l.15,0Zm-9.84-6.19c2.42,1,1.7,2.84.92,2.17a5.71,5.71,0,0,0-1-2.07Zm7-2.7.59-.83s.69.59,1.1,1c0,.15-.15.22-.33.22H81.61l-.1-.42Zm-3.11,6.59c3.12.94,2.68,3.18,1.74,2.57a5.85,5.85,0,0,0-1.86-2.44Zm2.28-3.33A.44.44,0,0,1,86,27a12.1,12.1,0,0,1-1.62,1.65l-.18-.14a20.79,20.79,0,0,0,1.18-2.33Z"/><path class="cls-3" d="M110.52,29.75c-.08.13-.19.19-.46.1a10.7,10.7,0,0,1-2.21,1,10.61,10.61,0,0,0,3.82,1.6l0,.16a.94.94,0,0,0-.73.81,8,8,0,0,1-5.15-4.4,7.81,7.81,0,0,1-1.61,1.19v2.05l2.43-.71,0,.2c-.64.34-1.81,1-3.08,1.58a.58.58,0,0,1-.19.23l-.58-.91c.48-.33.55-.44.55-.64V30.65a15.5,15.5,0,0,1-3.23,1.07l-.09-.23a12.14,12.14,0,0,0,4.6-2.61H100.2l-.11-.42h5.51a2,2,0,0,0-.77-1l.12-.13c1.32,0,1.49.84,1.2,1.17h3.62l.58-.79s.66.56,1.07,1c0,.15-.15.22-.33.22H106a5.76,5.76,0,0,0,1.54,1.76,11.38,11.38,0,0,0,1.93-1.6Zm-7.24-7.68h-1.59a4.06,4.06,0,0,1-.83,1l-.21-.13a7.63,7.63,0,0,0,.81-2.57l1.18.4a.39.39,0,0,1-.44.29,4.17,4.17,0,0,1-.26.57h1.34V20.36l1.24.16c0,.19-.14.33-.46.37v.76h1.21l.55-.73s.59.5,1,.93a.31.31,0,0,1-.34.22h-2.41v1.2h1.68l.53-.73s.63.53,1,.93a.29.29,0,0,1-.32.23h-2.89v1h1.59l.4-.53,1,.84a1.11,1.11,0,0,1-.57.29v.87c0,.62-.11.95-1,1.05a.72.72,0,0,0-.17-.47,1.41,1.41,0,0,0-.62-.23v-.22s.62.07.82.07.2-.09.2-.25v-1h-1.72v2.28c0,.11-.34.31-.62.31h-.16V25.14h-1.46v1.92c0,.09-.35.27-.64.27h-.1v-3l.8.41h1.4v-1H100.2l-.1-.43h3.18Zm5.26,3.59c0,.1-.34.29-.62.29h-.15V20.86L109,21c0,.2-.14.32-.46.38Zm-.3.92s1.13.08,1.39.08.25-.07.25-.27V20.45l1.26.16c0,.2-.17.31-.46.37v5.45c0,.72-.13,1.13-1.23,1.26a.86.86,0,0,0-.25-.6,1.88,1.88,0,0,0-1-.3Z"/><path class="cls-3" d="M125.42,27.37c-.07.12-.21.15-.5.16a7.67,7.67,0,0,1-1.61,3.11.5.5,0,0,1,.19.15c1.13,1.26,2.58,1.46,5.1,1.46,1.5,0,2.78,0,4.36-.09v.19a.78.78,0,0,0-.64.74h-4c-2.61,0-3.85-.4-5-1.9-.15-.2-.28-.17-.38,0-.24.43-.73,1.26-1,1.83a.26.26,0,0,1-.06.3l-.72-1c.47-.41,1.2-1.23,1.64-1.58a9.4,9.4,0,0,0,1.32-3.29h-1.42l-.36.32-.72-.74a3.15,3.15,0,0,1,.51-.21,28,28,0,0,0,1.4-2.48h-2.15l-.12-.41h2.44l.47-.53,1,1a1.26,1.26,0,0,1-.84.21c-.37.67-1,1.71-1.45,2.45h1.22l.5-.53Zm-3.5-6.88c2.75.83,2.14,2.88,1.26,2.25a5.27,5.27,0,0,0-1.38-2.12ZM126.68,23A7.33,7.33,0,0,1,125.4,25l-.19-.13a13.83,13.83,0,0,0,1.33-4.13l1.27.41a.42.42,0,0,1-.46.29c-.14.43-.3.83-.46,1.22h1.52V20.36l1.28.15c0,.2-.15.34-.46.4v1.7h1.09l.59-.81s.67.57,1.09,1c0,.16-.15.23-.33.23h-2.44v2.2H131l.59-.86s.67.61,1.1,1.06c0,.15-.16.22-.35.22h-7.25l-.11-.42h3.4V23Zm4.06,8.32v-.88h-4v.68c0,.09-.35.3-.7.3h-.12V26.58l.89.44h3.82l.45-.54,1,.85a.87.87,0,0,1-.5.26V31c0,.1-.41.33-.68.33Zm0-1.29V27.44h-4v2.63Z"/><path class="cls-3" d="M144.18,28.11a9.82,9.82,0,0,1-1.61,5.35l-.21-.14c1-2.19,1.06-4.86,1.06-7.33V21.56l.76.29a19.23,19.23,0,0,0,3-1.5l1,.91c-.11.12-.33.13-.64,0a25.23,25.23,0,0,1-3.27.91V24h2.43l.46-.56,1,.87a1,1,0,0,1-.55.29v4.06a1.09,1.09,0,0,1-.68.27h-.12v-.79Zm0-3.71V26c0,.52,0,1.11,0,1.69h2.57V24.4Zm9-.19s.68.59,1.08,1a.3.3,0,0,1-.32.22h-1.45v7.6a.83.83,0,0,1-.71.3h-.13v-7.9h-2c0,2.65-.4,5.83-3.1,8l-.18-.17c2.09-2.29,2.46-5.13,2.46-8v-4l.94.37A20.24,20.24,0,0,0,153,20.35l1.08,1.08c-.13.13-.37.13-.68,0a27.87,27.87,0,0,1-3.68.65v3h2.9Z"/></svg>