<?xml version="1.0" encoding="utf-8"?>
<!-- Generator: Adobe Illustrator 22.0.1, SVG Export Plug-In . SVG Version: 6.00 Build 0)  -->
<svg version="1.1" id="圖層_1" xmlns="http://www.w3.org/2000/svg" xmlns:xlink="http://www.w3.org/1999/xlink" x="0px" y="0px"
	 viewBox="0 0 110.8 296.7" style="enable-background:new 0 0 110.8 296.7;" xml:space="preserve">
<style type="text/css">
	.st0{fill:#9E9E9F;}
	.st1{fill:#C1DA75;}
	.st2{fill:#3E3A39;}
</style>
<title>logo</title>
<polygon class="st0" points="41,82.2 45.5,73 49.8,81.8 50.4,81.3 45.5,71.3 36.6,89.8 37.3,89.8 40.7,82.9 47.9,82.9 49,82.2 "/>
<polygon class="st0" points="59.5,90 60.3,90 60.3,82.3 59.5,82.8 "/>
<polygon class="st0" points="60.3,71.9 60.3,75.1 59.5,75.7 59.5,71.9 "/>
<polygon class="st0" points="62.4,81 61.7,81.4 69.9,90 71,90 "/>
<polygon class="st0" points="73.9,89.8 73.9,71.8 80.4,71.8 80.4,72.5 74.7,72.5 74.7,82.3 79.5,82.3 79.5,83 74.7,83 74.7,89.1 
	80.4,89.1 80.4,89.8 "/>
<path class="st0" d="M85.2,83.3h0.4c1.4-0.1,2.7-0.7,3.6-1.7c2.2-2,2.4-5.5,0.4-7.7c-0.1-0.1-0.2-0.2-0.4-0.4
	c-1.1-1.1-2.5-1.7-4.1-1.7H84v18h0.8v-5.7l5.4,5.8h1.1C91,89.3,85.2,83.3,85.2,83.3z M84.9,72.5h0.3c1.3,0,2.6,0.6,3.5,1.5
	c2,1.9,2,5,0.2,7c-0.1,0.1-0.1,0.1-0.2,0.2c-0.9,0.9-2.1,1.5-3.4,1.5h-0.4V72.5z"/>
<polygon class="st0" points="34.3,71.8 34.3,89.8 33.6,89.8 33.6,72.7 25,90.2 16.5,72.7 16.5,89.8 15.8,89.8 15.8,71.8 17,71.8 
	25.1,88.4 33.2,71.8 "/>
<polygon class="st0" points="32.9,74 33.2,73.5 33.2,73.5 "/>
<path class="st1" d="M110.8,11.6c-0.9,4.2-2.6,12.7-11.5,19.1s-17,6.2-22,5.8c-0.4-5.6-1.5-16.4,8-24.2S108.3,8.6,110.8,11.6z"/>
<path class="st1" d="M67.1,34.5c-0.9,4.2-2.7,12.7-11.6,19.1s-17,6.2-22,5.8c-0.4-5.6-1.5-16.4,8-24.2S64.6,31.5,67.1,34.5z"/>
<path class="st2" d="M81.4,89.1H45.2l17.6-11c0.3-0.2,0.7-0.4,1-0.7c5.8-3.7,8.8-6.1,10.8-8c1.2-1.3,2.3-2.7,3.3-4.2
	C78,65.1,78,65,78,65c6.4-9.7,4.2-22.6-4.9-29.7c0.2-1.4,0.3-2.9,0.3-4.3c0-17.1-13.8-31-31-31s-31,13.8-31,31s13.8,31,31,31
	c14.5,0,27.1-10,30.3-24.1c7.4,6.4,9,17.3,3.8,25.6L76,64.1c-1.8,2.6-3.7,5.2-11.6,10.4l-2.6,1.6c-0.2,0.1-0.4,0.2-0.5,0.3L41,89.1
	v0.1l-3.5,2.2h43.9c0.6,0,1.1-0.5,1.1-1.1C82.6,89.6,82.1,89.1,81.4,89.1z M42.4,59.7c-15.9,0-28.8-12.8-28.8-28.7
	S26.5,2.2,42.4,2.2S71.2,15,71.2,30.9c0,0,0,0,0,0.1c0,1,0,1.9-0.1,2.9c-10.4-6.4-24.1-3.1-30.5,7.4c-2.1,3.5-3.2,7.5-3.2,11.6v0.5
	c0,0.6,0.5,1.1,1,1.1l0,0c0.6,0,1.1-0.5,1.1-1.1l0,0v-0.5c0-11,8.9-20,19.9-20c4,0,7.9,1.2,11.2,3.4C68.1,49.9,56.3,59.7,42.4,59.7
	L42.4,59.7z"/>
<path class="st1" d="M1,283.7c4.7,0.3,9.4-1.3,12.9-4.5c3.6-3.2,5.9-7.6,6.3-12.4c-3.3-0.9-9.6-3-15.5,1.6S-0.4,281.8,1,283.7z"/>
<path class="st2" d="M21.9,128c-1.2,1.8-2.8,3.4-4.6,4.5l-0.2-0.3c2.1-2,3.8-4.4,4.7-7.2l2,0.8c-0.1,0.2-0.3,0.3-0.7,0.2
	c-0.2,0.4-0.5,0.8-0.7,1.3h9.2l1-1.3c0,0,1.1,0.9,1.8,1.7c-0.1,0.2-0.3,0.3-0.5,0.3H21.9z M28.6,139.7c0,0,1.2,1,1.9,1.7
	c-0.1,0.2-0.3,0.4-0.5,0.4h-5.6v3.2c-0.3,0.3-0.7,0.5-1.1,0.4h-0.2v-3.6h-5.2l-0.2-0.7h5.4v-2h-4l-0.2-0.6H23v-1.9h-4.6l-0.2-0.7
	h3.7c-0.1,0-0.1-0.1-0.2-0.1c-0.2-0.9-0.6-1.8-1.2-2.5l0.2-0.2c2.4,0.8,2.5,2.3,1.9,2.8h1.7c0.4-1,0.7-1.9,1-2.9l2,0.7
	c-0.1,0.3-0.4,0.4-0.8,0.4c-0.5,0.7-1.1,1.3-1.7,1.8h1.9l1-1.3c0,0,1.1,0.9,1.8,1.6c-0.1,0.2-0.3,0.4-0.5,0.4h-4.8v1.9h2l1-1.3
	c0,0,1.1,0.9,1.8,1.6c0,0.2-0.3,0.3-0.5,0.3h-4.2v2h3.2L28.6,139.7z M34.7,143.7c0.4,0.6,0.5,1,0.3,1.3c-0.4,0.6-1.2,0.2-1.9-0.4
	c-2.5-1.9-3-6.8-3.1-11.8H18.8l-0.2-0.6h11.3l0.8-0.9l1.6,1.5c-0.2,0.2-0.5,0.3-0.8,0.4c-0.1,3.7,0.4,8.7,2.3,10
	c0.2,0.2,0.3,0.1,0.4-0.1c0.2-0.7,0.4-1.4,0.6-2.1H35L34.7,143.7z M30,129.7l1-1.3c0,0,1,0.9,1.7,1.6c0,0.2-0.2,0.4-0.5,0.4H21.3
	l-0.2-0.6L30,129.7z"/>
<path class="st2" d="M22,160.7c-1.1,2.1-2.8,4-4.8,5.3l-0.2-0.3c2.3-2.2,3.9-5,4.8-8.1l2,0.9c-0.1,0.3-0.5,0.4-0.8,0.4
	c-0.2,0.4-0.4,0.8-0.6,1.2h9.2l1-1.3c0.6,0.5,1.2,1,1.8,1.6c0,0.2-0.3,0.4-0.5,0.4L22,160.7z M28.6,169.6c0,0,1,0.8,1.6,1.4
	c-0.1,0.2-0.3,0.4-0.5,0.4h-5.1v5.8c0,0.2-0.6,0.5-1,0.5h-0.3v-6.3h-5.6l-0.1-0.6h5.8v-4.6l1.9,0.2c0,0.3-0.2,0.5-0.6,0.6v3.8h3.2
	L28.6,169.6z M17.9,176.7c1.2-1.2,2.2-2.7,3-4.3l1.6,1.1c-0.1,0.2-0.4,0.3-0.8,0.2c-0.9,1.3-2.1,2.4-3.5,3.2L17.9,176.7z
	 M34.6,176.2c0.4,0.6,0.5,0.9,0.3,1.2c-0.4,0.5-1.2,0.2-1.9-0.4c-2.4-1.8-2.9-6.5-3-11.4H19.1L19,165h11l0.8-0.9l1.6,1.4
	c-0.2,0.2-0.5,0.3-0.8,0.4c-0.1,3.6,0.4,8.4,2.2,9.7c0.2,0.2,0.3,0.1,0.4-0.1c0.2-0.7,0.4-1.3,0.6-2H35L34.6,176.2z M19.4,166.7
	c3.7,1.6,2.6,4.4,1.4,3.4c-0.3-1.2-0.9-2.3-1.6-3.2L19.4,166.7z M30.3,162.5l0.9-1.3c0,0,1.1,0.9,1.7,1.6c-0.1,0.2-0.3,0.4-0.5,0.4
	H21.5l-0.2-0.7H30.3z M25.5,172.7c4.8,1.4,4.1,4.9,2.7,4c-0.6-1.5-1.6-2.8-2.9-3.8L25.5,172.7z M29,167.5c-0.2,0.3-0.5,0.4-0.8,0.3
	c-0.7,0.9-1.6,1.8-2.5,2.6l-0.3-0.2c0.7-1.2,1.3-2.4,1.8-3.6L29,167.5z"/>
<path class="st2" d="M33.2,204.7c-0.1,0.2-0.3,0.3-0.7,0.1c-1.1,0.7-2.2,1.2-3.4,1.6c1.8,1.2,3.8,2,5.9,2.5v0.2
	c-0.6,0.1-1.1,0.6-1.1,1.3c-3.5-1-6.5-3.5-8-6.8c-0.7,0.7-1.6,1.3-2.5,1.9v3.2c1.1-0.3,2.4-0.7,3.7-1.1l0.1,0.3
	c-1,0.5-2.8,1.5-4.8,2.4c-0.1,0.1-0.2,0.3-0.3,0.4l-0.9-1.4c0.7-0.5,0.9-0.7,0.9-1v-2.1c-1.6,0.7-3.3,1.3-5,1.6l-0.1-0.4
	c2.6-0.8,5.1-2.2,7.1-4h-6.8l-0.2-0.7h8.5c-0.2-0.6-0.6-1.2-1.2-1.6l0.2-0.2c2,0,2.3,1.3,1.9,1.8h5.6l0.9-1.2c0,0,1,0.9,1.7,1.5
	c0,0.2-0.2,0.4-0.5,0.4h-7.9c0.6,1.1,1.4,2,2.4,2.7c1.1-0.7,2.1-1.5,3-2.5L33.2,204.7z M22,192.8h-2.4c-0.3,0.6-0.8,1.1-1.3,1.6
	l-0.3-0.2c0.6-1.2,1.1-2.6,1.2-4l1.8,0.6c-0.1,0.3-0.4,0.5-0.7,0.4c-0.1,0.3-0.3,0.6-0.4,0.9h2v-2l1.9,0.2c-0.1,0.3-0.2,0.5-0.7,0.6
	v1.2H25l1-1.1c0,0,0.9,0.8,1.5,1.4c-0.1,0.2-0.3,0.4-0.5,0.4h-3.8v1.9h2.6l0.8-1.1c0.5,0.5,1.1,1,1.5,1.5c0,0.2-0.3,0.4-0.5,0.4
	h-4.5v1.6h2.5l0.6-0.8l1.6,1.3c-0.2,0.2-0.5,0.4-0.9,0.4v1.4c0,1-0.2,1.5-1.5,1.6c0-0.3-0.1-0.5-0.3-0.7c-0.3-0.2-0.6-0.3-1-0.4
	v-0.4c0,0,1,0.1,1.3,0.1s0.3-0.1,0.3-0.4v-1.5h-2.6v3.5c0,0.2-0.5,0.5-1,0.5H22v-4h-2.2v3c0,0.1-0.5,0.4-1,0.4h-0.2v-4.7l1.2,0.6H22
	v-1.6h-4.7l-0.2-0.7H22V192.8z M30.1,198.3c0,0.2-0.5,0.4-1,0.4H29v-7.9l1.9,0.2c0,0.3-0.2,0.5-0.7,0.6L30.1,198.3z M29.7,199.8
	c0,0,1.7,0.1,2.1,0.1s0.4-0.1,0.4-0.4v-9.2l1.9,0.2c-0.1,0.3-0.3,0.5-0.7,0.6v8.4c0,1.1-0.2,1.7-1.9,1.9c0-0.3-0.1-0.7-0.4-0.9
	c-0.4-0.3-1-0.4-1.5-0.5L29.7,199.8z"/>
<path class="st2" d="M23.4,233.6c-0.1,0.2-0.3,0.2-0.8,0.2c-0.5,1.8-1.3,3.4-2.5,4.8c0.1,0.1,0.2,0.1,0.3,0.2c1.7,1.9,4,2.2,7.9,2.2
	c2.3,0,4.3,0,6.7-0.1v0.3c-0.6,0.1-1,0.6-1,1.1h-6.1c-4,0-5.9-0.6-7.7-2.9c-0.2-0.3-0.4-0.3-0.6,0c-0.4,0.7-1.1,1.9-1.6,2.8
	c0.1,0.2,0,0.3-0.1,0.5l-1.1-1.5c0.7-0.6,1.9-1.9,2.5-2.4c1-1.6,1.7-3.3,2-5.1h-2.2l-0.6,0.5l-1.1-1.1c0.3-0.1,0.5-0.2,0.8-0.3
	c0.6-1,1.6-2.6,2.2-3.8h-3.3l-0.2-0.6h3.8l0.7-0.8l1.5,1.5c-0.4,0.3-0.8,0.4-1.3,0.3c-0.6,1-1.5,2.6-2.2,3.8h1.9l0.8-0.8L23.4,233.6
	z M18,222.9c4.2,1.3,3.3,4.4,1.9,3.5c-0.4-1.3-1.2-2.4-2.1-3.3L18,222.9z M25.4,226.9c-0.5,1.1-1.2,2.1-2,2.9l-0.3-0.2
	c1-2,1.7-4.2,2.1-6.4l2,0.6c-0.1,0.3-0.4,0.5-0.7,0.4c-0.2,0.7-0.5,1.3-0.7,1.9H28v-3.5l2,0.2c0,0.3-0.2,0.5-0.7,0.6v2.6H31l0.9-1.3
	c0,0,1,0.9,1.7,1.6c0,0.2-0.2,0.4-0.5,0.4h-3.8v3.4H32l0.9-1.3c0,0,1,0.9,1.7,1.6c-0.1,0.2-0.2,0.4-0.5,0.4H22.9l-0.2-0.7H28v-3.4
	h-2.6V226.9z M31.6,239.7v-1.4h-6.2v1.1c0,0.1-0.6,0.5-1.1,0.5h-0.2v-7.6l1.4,0.7h5.9l0.7-0.8l1.5,1.3c-0.2,0.2-0.5,0.3-0.8,0.4v5.3
	c0,0.1-0.6,0.5-1,0.5H31.6z M31.6,237.7v-4h-6.2v4H31.6z"/>
<path class="st2" d="M19.5,267.3c-0.2,2.8-0.7,5.9-2.5,8.2l-0.3-0.2c1.5-3.4,1.6-7.5,1.6-11.3v-6.8l1.2,0.4c1.6-0.6,3.1-1.4,4.5-2.3
	l1.5,1.4c-0.2,0.2-0.5,0.2-1,0c-1.7,0.6-3.3,1-5,1.4v2.8h3.7L24,260l1.6,1.3c-0.2,0.2-0.5,0.4-0.9,0.4v6.3c-0.3,0.3-0.7,0.4-1,0.4
	h-0.2v-1.2h-4V267.3z M19.5,261.5v2.5c0,0.8,0,1.7,0,2.6h4v-5.1H19.5z M33.4,261.2c0.6,0.5,1.1,1,1.7,1.6c0,0.2-0.3,0.4-0.5,0.4
	h-2.2v11.7c-0.3,0.3-0.7,0.5-1.1,0.5h-0.2v-12.2H28c0,4.1-0.6,9-4.8,12.3l-0.3-0.3c3.2-3.5,3.8-7.9,3.8-12.3v-6.1l1.5,0.6
	c1.7-0.6,3.3-1.2,4.9-2.1l1.7,1.7c-0.2,0.2-0.6,0.2-1,0c-1.9,0.5-3.8,0.8-5.7,1v4.6h4.5L33.4,261.2z"/>
<path class="st1" d="M55.1,214.3c-3.8,0-6.1-2.3-6.1-4.7s2.2-4.8,6.1-4.8s6.1,2.3,6.1,4.8S59,214.3,55.1,214.3z M49.7,209.6
	c0,2.2,2.6,3.3,5.4,3.3s5.4-1.1,5.4-3.3s-2.6-3.3-5.4-3.3S49.7,207.3,49.7,209.6L49.7,209.6z"/>
<path class="st1" d="M50,222.4h-0.8v-4h0.6c0.6,0.6,1.3,1.1,1.8,1.6c0.8,0.8,1.8,1.3,2.8,1.4c0.9,0,1.5-0.5,1.5-1.2
	c0-0.2,0-0.4-0.1-0.6l-0.8-0.2c-0.4-0.1-0.6-0.2-0.6-0.5c0-0.2,0.1-0.4,0.3-0.4c1,0.1,1.6,1,1.6,1.9c0.1,0.9-0.6,1.7-1.5,1.8
	c-0.1,0-0.2,0-0.3,0c-0.9,0-1.6-0.4-3.2-1.9c-0.3-0.2-0.8-0.7-1.3-1.2V222.4z"/>
<path class="st1" d="M60.2,249.7c-1.5,0-3.1,0-4.7,0h-0.9c-1.5,0-3.1,0-4.7,0l-0.2,1.5h-0.6V247h0.6l0.2,1.4c1.5,0,3.1,0,4.6,0h4.8
	l-10.2-3.6v-0.6l10.1-3.8l-3.7,0.1H50l-0.2,1.5h-0.6v-3.5h0.6l0.2,1.4h10.2l0.2-1.4H61v2.7l-9.9,3.6l9.9,3.5v2.9h-0.6L60.2,249.7z"
	/>
<path class="st1" d="M49.9,262.3c-0.5-0.2-0.8-0.7-0.8-1.2c0-0.7,0.5-1.2,1.4-1.3c-1-0.9-1.5-1.5-1.5-2.4c0-1.1,0.8-2,1.9-2.1
	c0.1,0,0.1,0,0.2,0c1.1,0,1.9,0.6,2.7,2.5c0.2,0.6,0.4,1.2,0.6,1.9h0.5c1.8,0,2.2-0.5,2.2-1.6c0-0.3-0.1-0.7-0.2-1l-1.2-0.3
	c-0.5-0.1-0.7-0.3-0.7-0.7c0-0.3,0.2-0.6,0.6-0.6l0,0c1.4,0.3,2.3,1.6,2.1,3c0,1.6-0.8,2.4-2.9,2.4H51c-0.9,0-1.2,0.2-1.2,0.6
	c0,0.3,0.2,0.5,0.4,0.6L49.9,262.3z M53.9,259.7c-0.2-0.5-0.4-1.1-0.6-1.6c-0.6-1.4-1.3-1.7-1.9-1.7c-0.7-0.1-1.3,0.4-1.4,1
	c0,0.1,0,0.2,0,0.3c0,0.6,0.3,1,1.1,1.9h2.8V259.7z"/>
<path class="st1" d="M49.8,273.9h-0.5v-2l4.5-2.5l-1.3-1.1H50l-0.2,1.2h-0.5v-3.7h0.5l0.2,1.3h2.9h8l0.1-1.3h0.5l0.7,2.2l-0.1,0.2
	h-2.5h-6.3l3.3,2.9l0.2-1.3h0.6v3.6h-0.6l-0.2-1.4l-2.1-1.9l-4.6,2.7L49.8,273.9z"/>
<path class="st1" d="M53.5,278.4c-2.4,0-3.5,1.1-3.5,2.7c0,0.9,0.5,1.8,1.2,2.3l-0.3,0.3c-1.2-0.5-1.9-1.7-1.9-2.9
	c0-2,1.5-3.5,4.3-3.5s4.4,1.6,4.4,3.5c0,1.7-1.3,2.9-3.3,2.9c-0.3,0-0.7,0-1-0.1L53.5,278.4z M54.1,281.8c0,0.6,0.4,0.8,0.9,0.8
	c1.1,0.1,2.1-0.8,2.1-1.9l0,0c0-1-1-2.1-3-2.3V281.8z"/>
<path class="st1" d="M55.5,290.2c1.4,0.5,2.3,1.4,2.3,2.4c0,0.4-0.2,0.9-0.6,1.1c-0.7,0-1.1-0.2-1.1-0.8c0-0.4,0.2-0.7,0.5-0.9
	l0.2-0.2c-0.6-0.7-1.4-1.3-2.3-1.5h-1.4c-0.8,0-2,0-2.9,0l-0.2,1.3h-0.5v-3.7H50l0.2,1.2c0.9,0,2.1,0,3,0h0.9c1,0,1.7,0,2.4,0
	l0.1-1.3h0.5l0.8,2.1l-0.2,0.2L55.5,290.2z"/>
</svg>
